<svg width="1440" height="574" viewBox="0 0 1440 574" fill="none" xmlns="http://www.w3.org/2000/svg">
<path opacity="0.2" d="M142 224.831C142 225.169 142 225.507 141.662 225.845L59.9706 307.662C59.633 308 59.2953 308 58.9577 308C58.6202 308 58.2826 308 57.9451 307.662L-23.7468 225.845C-24.0844 225.507 -24.0844 224.493 -23.7468 224.155L57.9451 142.338C58.2826 142 58.6202 142 58.9577 142C59.2953 142 59.633 142 59.9706 142.338L127.822 210.293C128.16 210.631 128.16 211.646 127.822 211.984L59.9706 279.939C59.633 280.277 58.6203 280.277 58.2828 279.939L4.27162 225.845C3.93405 225.507 3.93405 224.493 4.27162 224.155L58.2828 170.061C58.6203 169.723 59.633 169.723 59.9706 170.061L100.479 210.631C100.817 210.969 100.817 211.984 100.479 212.322L86.9762 225.845L60.3081 252.554C59.9705 252.892 58.9578 252.892 58.6203 252.554L31.9522 225.845C31.6146 225.507 31.6146 224.493 31.9522 224.155L58.6202 197.446C58.9578 197.108 59.9705 197.108 60.3081 197.446L86.301 223.479L98.1159 211.646L59.6329 173.104L7.64731 225.169L59.6329 277.234L125.797 210.969L59.6329 144.705L-20.3711 224.831L59.6329 304.957L140.312 224.155C140.65 223.817 141.662 223.817 142 224.155C141.662 224.155 142 224.493 142 224.831ZM58.9577 249.849L83.938 224.831L58.9577 199.813L33.9777 224.831L58.9577 249.849Z" fill="black"/>
<rect opacity="0.7" width="1440" height="574" fill="url(#paint0_linear_3_39)"/>
<defs>
<linearGradient id="paint0_linear_3_39" x1="720" y1="0" x2="720" y2="574" gradientUnits="userSpaceOnUse">
<stop stop-color="#183DB8" stop-opacity="0"/>
<stop offset="0.526042" stop-color="#183DB8" stop-opacity="0.25"/>
<stop offset="1" stop-color="#183DB8" stop-opacity="0"/>
</linearGradient>
</defs>
</svg>
