<svg width="76" height="125" viewBox="0 0 76 125" fill="none" xmlns="http://www.w3.org/2000/svg">
<path opacity="0.3" d="M38.2205 89.6778L36.8205 89.1393L38.2205 89.6778ZM28.244 33.26L26.8892 32.6162L28.244 33.26ZM75.64 5.14219L58.9249 0.60284L63.3513 17.3482L75.64 5.14219ZM61.6071 7.84803C58.833 8.8552 55.8186 10.0521 52.7506 11.4453L53.991 14.1769C56.976 12.8214 59.9166 11.6534 62.6309 10.6679L61.6071 7.84803ZM44.2268 15.8316C41.4306 17.4703 38.7244 19.2911 36.264 21.3016L38.1623 23.6247C40.4787 21.7319 43.0517 19.9975 45.7436 18.4199L44.2268 15.8316ZM29.4553 28.3395C28.4649 29.697 27.5991 31.1222 26.8892 32.6162L29.5988 33.9038C30.2204 32.5957 30.9868 31.3304 31.8789 30.1076L29.4553 28.3395ZM26.8892 32.6162C26.0838 34.311 25.5197 35.984 25.1644 37.6389L28.0975 38.2687C28.4025 36.8482 28.89 35.3955 29.5988 33.9038L26.8892 32.6162ZM25.4546 48.1456C26.263 51.4277 27.6317 54.6027 29.15 57.6878L31.8417 56.363C30.3591 53.3506 29.0997 50.4007 28.3675 47.428L25.4546 48.1456ZM33.6959 66.5258C35.1803 69.5085 36.4782 72.4562 37.2972 75.4492L40.1908 74.6574C39.2958 71.3865 37.898 68.236 36.3817 65.1892L33.6959 66.5258ZM38.0009 84.6642C37.7899 86.1213 37.4085 87.6107 36.8205 89.1393L39.6205 90.2164C40.2879 88.4813 40.7266 86.7749 40.9699 85.094L38.0009 84.6642ZM36.8205 89.1393C36.3533 90.3539 35.7739 91.5639 35.097 92.7652L37.7107 94.2379C38.4506 92.9247 39.0949 91.5826 39.6205 90.2164L36.8205 89.1393ZM30.3463 99.4152C28.5767 101.474 26.6052 103.455 24.5369 105.333L26.5534 107.554C28.6945 105.61 30.7561 103.541 32.6213 101.371L30.3463 99.4152ZM18.1058 110.659C15.751 112.453 13.4223 114.079 11.2655 115.504L12.9193 118.007C15.1224 116.552 17.5069 114.886 19.9234 113.046L18.1058 110.659ZM4.13564 119.913C3.003 120.566 2.08781 121.071 1.45787 121.412C1.14293 121.582 0.899386 121.711 0.735725 121.797C0.653895 121.84 0.592043 121.872 0.551223 121.893C0.530817 121.904 0.515675 121.912 0.505928 121.917C0.501044 121.919 0.497514 121.921 0.495362 121.922C0.494279 121.923 0.493536 121.923 0.49314 121.923C0.492943 121.923 0.49283 121.924 0.492802 121.924C0.492788 121.924 0.492791 121.924 0.49283 121.924C0.492844 121.924 0.492874 121.924 0.492888 121.924C0.49293 121.924 0.492985 121.923 1.17586 123.259C1.85873 124.595 1.85879 124.595 1.85886 124.595C1.85888 124.594 1.85896 124.594 1.85902 124.594C1.85914 124.594 1.85927 124.594 1.85943 124.594C1.85975 124.594 1.86016 124.594 1.86065 124.594C1.86163 124.593 1.86296 124.592 1.86463 124.592C1.86798 124.59 1.87269 124.587 1.87875 124.584C1.89089 124.578 1.90844 124.569 1.93128 124.557C1.97695 124.533 2.04377 124.499 2.13067 124.453C2.30446 124.362 2.55859 124.227 2.88453 124.051C3.53638 123.698 4.47583 123.18 5.63464 122.512L4.13564 119.913Z" fill="black"/>
</svg>
