<svg width="1440" height="690" viewBox="0 0 1440 690" fill="none" xmlns="http://www.w3.org/2000/svg">
<path opacity="0.2" d="M1408 71.3544C1408 71.6456 1408 71.9369 1407.71 72.2281L1337.34 142.709C1337.05 143 1336.75 143 1336.46 143C1336.17 143 1335.88 143 1335.59 142.709L1265.22 72.2281C1264.93 71.9369 1264.93 71.0631 1265.22 70.7719L1335.59 0.291252C1335.88 9.31892e-06 1336.17 -8.46548e-06 1336.46 -8.47819e-06C1336.75 -8.4909e-06 1337.05 9.26807e-06 1337.34 0.291252L1395.79 58.831C1396.08 59.1222 1396.08 59.9959 1395.79 60.2872L1337.34 118.827C1337.05 119.118 1336.17 119.118 1335.88 118.827L1289.35 72.2281C1289.06 71.9369 1289.06 71.0631 1289.35 70.7719L1335.88 24.1731C1336.17 23.8819 1337.05 23.8819 1337.34 24.1731L1372.23 59.1222C1372.52 59.4134 1372.52 60.2872 1372.23 60.5784L1360.6 72.2281L1337.63 95.2362C1337.34 95.5275 1336.46 95.5275 1336.17 95.2362L1313.2 72.2281C1312.91 71.9369 1312.91 71.0631 1313.2 70.7719L1336.17 47.7637C1336.46 47.4725 1337.34 47.4725 1337.63 47.7637L1360.02 70.1894L1370.2 59.9959L1337.05 26.7943L1292.26 71.6456L1337.05 116.497L1394.04 59.4134L1337.05 2.32994L1268.13 71.3544L1337.05 140.379L1406.55 70.7719C1406.84 70.4806 1407.71 70.4806 1408 70.7719C1407.71 70.7719 1408 71.0631 1408 71.3544ZM1336.46 92.9063L1357.98 71.3544L1336.46 49.8024L1314.94 71.3544L1336.46 92.9063Z" fill="black"/>
<path fill-rule="evenodd" clip-rule="evenodd" d="M1193.4 533.735C1199.24 568.268 1220.31 596.704 1246.92 619.469C1276.81 645.03 1311.16 675.039 1349.75 667.472C1387.98 659.973 1403.34 616.441 1425.56 584.436C1447.33 553.066 1478.18 524.329 1475.56 486.233C1472.76 445.66 1446.41 409.234 1411.99 387.578C1379.18 366.941 1338.39 367.124 1300.72 376.242C1265.91 384.67 1235.91 405.486 1215.74 435.085C1196 464.05 1187.55 499.176 1193.4 533.735Z" fill="#F5F1FF"/>
<path fill-rule="evenodd" clip-rule="evenodd" d="M-110.079 395.735C-104.238 430.268 -83.1694 458.704 -56.5546 481.469C-26.6721 507.03 7.68407 537.039 46.272 529.472C84.5045 521.973 99.8608 478.441 122.077 446.436C143.852 415.066 174.704 386.329 172.078 348.233C169.281 307.66 142.931 271.234 108.508 249.578C75.7037 228.941 34.9096 229.124 -2.75804 238.242C-37.5712 246.67 -67.5707 267.486 -87.7409 297.085C-107.478 326.05 -115.924 361.176 -110.079 395.735Z" fill="#F5F1FF"/>
<rect opacity="0.7" x="1" y="89" width="1440" height="574" fill="url(#paint0_linear_72_3)"/>
<defs>
<linearGradient id="paint0_linear_72_3" x1="721" y1="89" x2="721" y2="663" gradientUnits="userSpaceOnUse">
<stop stop-color="#183DB8" stop-opacity="0"/>
<stop offset="0.526042" stop-color="#183DB8" stop-opacity="0.25"/>
<stop offset="1" stop-color="#183DB8" stop-opacity="0"/>
</linearGradient>
</defs>
</svg>
