<svg width="103" height="158" viewBox="0 0 103 158" fill="none" xmlns="http://www.w3.org/2000/svg">
<path opacity="0.3" d="M92.9952 102.401L93.8995 103.597L92.9952 102.401ZM6.30263 92.9452L4.93942 92.3194L6.30263 92.9452ZM18.5582 157.938L3.18618 149.957L17.7842 140.635L18.5582 157.938ZM8.77459 143.553C7.27892 140.291 5.7967 136.628 4.53016 132.695L7.38571 131.776C8.61017 135.578 10.0467 139.129 11.5016 142.302L8.77459 143.553ZM1.74959 121.321C1.12812 117.504 0.818277 113.558 0.965158 109.579L3.96312 109.69C3.82461 113.442 4.11607 117.187 4.71062 120.839L1.74959 121.321ZM2.84374 97.8911C3.40292 96.0162 4.09645 94.1555 4.93942 92.3194L7.66583 93.571C6.88336 95.2754 6.23888 97.0041 5.71859 98.7485L2.84374 97.8911ZM4.93942 92.3194C5.72825 90.6011 6.62104 89.1218 7.61857 87.8691L9.96537 89.7379C9.14123 90.7729 8.3697 92.0379 7.66583 93.571L4.93942 92.3194ZM16.6868 82.6414C19.8504 82.2189 23.268 82.7611 26.7929 83.844L25.9118 86.7117C22.6031 85.6952 19.6529 85.2719 17.0839 85.615L16.6868 82.6414ZM35.9162 87.5284C38.725 88.8669 41.6161 90.3794 44.5403 91.9346L43.1316 94.5833C40.2128 93.031 37.3709 91.5448 34.6257 90.2367L35.9162 87.5284ZM53.0304 96.4285C55.8938 97.9068 58.7608 99.3195 61.6078 100.565L60.4055 103.313C57.4768 102.032 54.5471 100.588 51.6542 99.0941L53.0304 96.4285ZM70.4338 103.801C73.5726 104.685 76.6116 105.203 79.5187 105.225L79.4953 108.225C76.2544 108.2 72.9432 107.624 69.6208 106.689L70.4338 103.801ZM88.2435 103.492C89.558 102.903 90.842 102.148 92.0908 101.204L93.8995 103.597C92.4738 104.675 90.9953 105.546 89.4711 106.23L88.2435 103.492ZM92.0908 101.204C93.4736 100.159 94.6398 99.0729 95.6099 97.954L97.8766 99.9191C96.756 101.212 95.4326 102.439 93.8995 103.597L92.0908 101.204ZM99.4778 89.6545C99.8846 86.7599 99.5189 83.6376 98.4643 80.3225L101.323 79.4131C102.48 83.0485 102.932 86.6322 102.449 90.072L99.4778 89.6545ZM94.3087 71.4408C92.7002 68.7651 90.7724 66.0382 88.5863 63.2868L90.9351 61.4205C93.1853 64.2526 95.1916 67.0868 96.8799 69.8951L94.3087 71.4408ZM82.0067 55.7175C79.7618 53.3281 77.3733 50.9454 74.884 48.587L76.9472 46.4092C79.4729 48.802 81.9031 51.2259 84.1931 53.6634L82.0067 55.7175ZM67.392 41.8068C64.8469 39.5987 62.249 37.4307 59.6368 35.3185L61.5231 32.9857C64.1593 35.1173 66.784 37.3076 69.358 39.5408L67.392 41.8068ZM51.6675 29.0667C48.9129 26.9671 46.1877 24.949 43.5383 23.0309L45.2975 20.6009C47.965 22.532 50.7101 24.5648 53.4861 26.6807L51.6675 29.0667ZM35.2711 17.186C32.2384 15.0909 29.4024 13.1838 26.853 11.5009L28.5057 8.9972C31.0709 10.6906 33.9245 12.6095 36.9763 14.7176L35.2711 17.186ZM18.3302 6.00814C16.9832 5.16243 15.9214 4.50759 15.1974 4.06475C14.8354 3.84334 14.5578 3.67494 14.3713 3.5622C14.278 3.50583 14.2075 3.46338 14.1605 3.43517C14.1371 3.42107 14.1195 3.41053 14.1079 3.40359C14.1021 3.40012 14.0978 3.39755 14.095 3.39589C14.0937 3.39506 14.0927 3.39445 14.092 3.39407C14.0917 3.39389 14.0915 3.39375 14.0914 3.39368C14.0913 3.39364 14.0913 3.39362 14.0912 3.39361C14.0912 3.3936 14.0912 3.39361 14.0912 3.39361C14.0912 3.39361 14.0913 3.39362 14.8607 2.106C15.6301 0.818378 15.6302 0.818393 15.6302 0.818417C15.6302 0.818428 15.6303 0.818452 15.6303 0.818475C15.6304 0.818526 15.6305 0.818589 15.6306 0.818663C15.6309 0.818816 15.6312 0.819028 15.6317 0.819294C15.6326 0.819827 15.6338 0.820587 15.6355 0.821575C15.6388 0.823546 15.6436 0.826428 15.6499 0.830214C15.6625 0.837783 15.6812 0.848961 15.7057 0.863704C15.7548 0.893194 15.8275 0.936953 15.9229 0.994653C16.1139 1.11005 16.396 1.2812 16.7627 1.50548C17.496 1.95401 18.5678 2.61506 19.9254 3.46741L18.3302 6.00814Z" fill="black"/>
</svg>
