<svg width="40" height="137" viewBox="0 0 40 137" fill="none" xmlns="http://www.w3.org/2000/svg">
<path opacity="0.3" d="M10.8617 92.4518L12.3591 92.3625L10.8617 92.4518ZM37.4522 41.703L38.9383 41.4996L37.4522 41.703ZM0.794465 0.554329L18.0994 1.28908L8.81061 15.9082L0.794465 0.554329ZM13.3494 7.38206C15.6883 9.1819 18.1988 11.2353 20.701 13.4921L18.6918 15.7198C16.2572 13.5241 13.8083 11.5206 11.5198 9.75962L13.3494 7.38206ZM27.4966 20.2534C29.6653 22.6617 31.6932 25.2165 33.4294 27.8775L30.9169 29.5168C29.2823 27.0115 27.3552 24.5795 25.2673 22.2609L27.4966 20.2534ZM37.7876 36.6466C38.3204 38.2403 38.7141 39.8607 38.9383 41.4996L35.966 41.9063C35.7697 40.4713 35.4224 39.0334 34.9424 37.598L37.7876 36.6466ZM38.9383 41.4996C39.1927 43.3587 39.2238 45.124 39.0614 46.8087L36.0753 46.5208C36.2147 45.0747 36.19 43.5426 35.966 41.9063L38.9383 41.4996ZM35.6036 56.7343C33.8393 59.6176 31.5736 62.2292 29.1924 64.7097L27.0282 62.6322C29.3533 60.2101 31.4467 57.7799 33.0447 55.1685L35.6036 56.7343ZM22.1839 71.7565C19.8661 74.1497 17.7366 76.5661 16.0499 79.1706L13.5318 77.5398C15.3752 74.6935 17.6613 72.1141 20.0289 69.6694L22.1839 71.7565ZM12.589 87.74C12.3489 89.1925 12.2615 90.7276 12.3591 92.3625L9.36439 92.5412C9.25363 90.6854 9.35222 88.9263 9.62922 87.2507L12.589 87.74ZM12.3591 92.3625C12.4366 93.6615 12.6224 94.9901 12.9038 96.34L9.9669 96.9522C9.65929 95.4766 9.45159 94.0024 9.36439 92.5412L12.3591 92.3625ZM15.418 104.116C16.4812 106.614 17.7603 109.099 19.163 111.515L16.5686 113.021C15.1165 110.521 13.7783 107.924 12.6576 105.291L15.418 104.116ZM23.6794 118.539C25.3806 120.961 27.1076 123.216 28.7316 125.228L26.3976 127.112C24.7387 125.058 22.9703 122.749 21.2244 120.263L23.6794 118.539ZM34.192 131.588C35.0737 132.554 35.793 133.312 36.2903 133.827C36.5389 134.085 36.7319 134.282 36.8618 134.413C36.9268 134.479 36.976 134.528 37.0085 134.561C37.0248 134.577 37.0368 134.589 37.0446 134.597C37.0485 134.601 37.0513 134.603 37.053 134.605C37.0539 134.606 37.0545 134.607 37.0548 134.607C37.055 134.607 37.055 134.607 37.0551 134.607C37.0551 134.607 37.0551 134.607 37.055 134.607C37.055 134.607 37.055 134.607 37.055 134.607C37.055 134.607 37.0549 134.607 35.9997 135.673C34.9445 136.739 34.9445 136.739 34.9444 136.739C34.9444 136.739 34.9443 136.739 34.9443 136.739C34.9442 136.739 34.9441 136.739 34.944 136.739C34.9437 136.738 34.9434 136.738 34.943 136.738C34.9422 136.737 34.9412 136.736 34.9398 136.735C34.9371 136.732 34.9334 136.728 34.9286 136.723C34.9189 136.714 34.9049 136.7 34.8867 136.682C34.8503 136.645 34.7972 136.592 34.7282 136.522C34.5902 136.382 34.3888 136.177 34.1315 135.91C33.617 135.377 32.8786 134.599 31.9765 133.611L34.192 131.588Z" fill="black"/>
</svg>
