<svg width="124" height="133" viewBox="0 0 124 133" fill="none" xmlns="http://www.w3.org/2000/svg">
<path opacity="0.3" d="M3.47459 44.1262L2.06624 44.6425L3.47459 44.1262ZM81.4746 83.1262L82.9595 83.3383L81.4746 83.1262ZM35.9746 131.126L53.2196 132.741L45.9959 116.999L35.9746 131.126ZM51.9897 124.331C55.0136 122.399 58.2433 120.123 61.4377 117.503L59.5352 115.183C56.4469 117.716 53.3158 119.924 50.3743 121.804L51.9897 124.331ZM69.9348 109.447C72.5249 106.574 74.922 103.425 76.9534 100L74.3732 98.4697C72.4576 101.699 70.1845 104.689 67.7066 107.438L69.9348 109.447ZM81.7039 89.1572C82.2491 87.2782 82.6738 85.3384 82.9595 83.3383L79.9897 82.914C79.7244 84.7706 79.3301 86.5729 78.8227 88.3211L81.7039 89.1572ZM82.9595 83.3383C83.2269 81.4667 83.2775 79.7395 83.1173 78.1462L80.1324 78.4464C80.2647 79.7627 80.2282 81.244 79.9897 82.914L82.9595 83.3383ZM78.325 68.8405C75.8943 66.7721 72.7277 65.3771 69.178 64.3785L68.3656 67.2664C71.6977 68.2037 74.407 69.4457 76.3809 71.1253L78.325 68.8405ZM59.513 62.5351C56.4269 62.1392 53.1773 61.845 49.8769 61.5688L49.6266 64.5583C52.921 64.8341 56.1149 65.1237 59.1312 65.5107L59.513 62.5351ZM40.3058 60.7487C37.098 60.4408 33.9228 60.0758 30.855 59.581L30.3773 62.5427C33.5331 63.0517 36.7783 63.424 40.0191 63.735L40.3058 60.7487ZM21.6827 57.5217C18.5654 56.5647 15.7302 55.3544 13.2741 53.799L11.6691 56.3336C14.4073 58.0676 17.5027 59.3767 20.8023 60.3896L21.6827 57.5217ZM6.87795 47.6172C6.09216 46.4097 5.42171 45.0796 4.88294 43.6099L2.06624 44.6425C2.68134 46.3204 3.4524 47.8535 4.36352 49.2535L6.87795 47.6172ZM4.88294 43.6099C4.28637 41.9826 3.89412 40.4381 3.68459 38.9721L0.714774 39.3965C0.956818 41.09 1.40483 42.8383 2.06624 44.6425L4.88294 43.6099ZM4.9276 29.9003C6.15323 27.2466 8.15152 24.8198 10.8334 22.6041L8.92264 20.2913C5.98155 22.7212 3.66049 25.4889 2.20404 28.6425L4.9276 29.9003ZM19.1368 17.388C21.9381 16.0098 25.0354 14.7614 28.3633 13.6322L27.3994 10.7913C23.9739 11.9535 20.7525 13.2496 17.8124 14.6962L19.1368 17.388ZM37.9937 10.8322C41.1749 10.0393 44.4732 9.3297 47.8431 8.6952L47.288 5.747C43.8689 6.39076 40.5132 7.1124 37.2681 7.9213L37.9937 10.8322ZM57.8132 7.05264C61.1486 6.57465 64.5067 6.15903 67.8464 5.79802L67.524 2.8154C64.1536 3.17972 60.7609 3.59956 57.3876 4.08297L57.8132 7.05264ZM77.9317 4.85817C81.3844 4.5849 84.7683 4.36413 88.0343 4.18651L87.8714 1.19093C84.5832 1.36976 81.1746 1.59213 77.695 1.86752L77.9317 4.85817ZM98.1496 3.74999C101.834 3.63118 105.251 3.5638 108.305 3.52963L108.272 0.529817C105.198 0.564204 101.76 0.631993 98.0529 0.751547L98.1496 3.74999ZM118.445 3.52766C120.035 3.54617 121.282 3.57066 122.131 3.5905C122.555 3.60041 122.88 3.60916 123.097 3.61541C123.206 3.61854 123.289 3.62104 123.343 3.62275C123.371 3.6236 123.391 3.62426 123.405 3.6247C123.411 3.62492 123.416 3.62508 123.42 3.62519C123.421 3.62524 123.422 3.62528 123.423 3.6253C123.424 3.62532 123.424 3.62532 123.424 3.62533C123.424 3.62533 123.424 3.62533 123.424 3.62533C123.424 3.62533 123.424 3.62533 123.424 3.62533C123.424 3.62533 123.424 3.62533 123.475 2.12618C123.525 0.627033 123.525 0.627031 123.525 0.62703C123.525 0.627029 123.525 0.627028 123.525 0.627026C123.525 0.627023 123.525 0.627019 123.525 0.627014C123.524 0.627004 123.524 0.62699 123.523 0.626973C123.522 0.626938 123.521 0.626889 123.519 0.626825C123.515 0.626698 123.509 0.626514 123.502 0.626275C123.487 0.625797 123.466 0.625101 123.437 0.624208C123.38 0.622422 123.295 0.619845 123.183 0.616646C122.96 0.610249 122.631 0.60136 122.201 0.591316C121.341 0.571228 120.082 0.546516 118.48 0.527868L118.445 3.52766Z" fill="black"/>
</svg>
