<svg width="193" height="91" viewBox="0 0 193 91" fill="none" xmlns="http://www.w3.org/2000/svg">
<path d="M56.5 29.4998L57.924 29.9712L56.5 29.4998ZM0 85.9998L16.6544 90.757L12.447 73.9552L0 85.9998ZM15.5781 83.4791C18.631 82.6373 22.045 81.6722 25.7275 80.5936L24.8842 77.7145C21.2184 78.7882 17.8196 79.7491 14.7806 80.5871L15.5781 83.4791ZM35.7877 77.5583C39.0217 76.5533 42.3746 75.4821 45.8001 74.3498L44.8585 71.5014C41.4515 72.6276 38.1157 73.6933 34.8974 74.6934L35.7877 77.5583ZM55.7681 70.9442C59.0524 69.7836 62.3618 68.5737 65.6588 67.3185L64.5914 64.5148C61.319 65.7606 58.0323 66.9623 54.7685 68.1156L55.7681 70.9442ZM75.4586 63.4277C78.7465 62.0639 81.984 60.6569 85.1313 59.2108L83.8787 56.4848C80.7695 57.9134 77.5667 59.3054 74.3092 60.6566L75.4586 63.4277ZM94.6156 54.5756C97.8732 52.8745 100.971 51.1278 103.853 49.3407L102.271 46.7912C99.463 48.533 96.4306 50.2434 93.227 51.9163L94.6156 54.5756ZM112.593 43.2304C115.667 40.7624 118.286 38.2107 120.293 35.5835L117.908 33.7626C116.09 36.1439 113.661 38.5261 110.715 40.8909L112.593 43.2304ZM124.657 25.2931C124.805 23.3718 124.571 21.4419 123.921 19.5192L121.079 20.4804C121.601 22.0227 121.783 23.5473 121.666 25.0623L124.657 25.2931ZM123.921 19.5192C123.289 17.6518 122.554 15.929 121.723 14.3456L119.066 15.7393C119.82 17.175 120.495 18.7524 121.079 20.4804L123.921 19.5192ZM114.613 5.59318C111.55 3.16402 108.072 1.59657 104.384 0.762621L103.722 3.68876C107.011 4.43243 110.069 5.81841 112.749 7.94373L114.613 5.59318ZM93.1936 0.287564C89.591 0.71627 85.9613 1.65521 82.445 3.00494L83.52 5.8057C86.8297 4.53528 90.2177 3.66287 93.5481 3.26654L93.1936 0.287564ZM72.6178 8.02827C69.4918 10.0594 66.5885 12.4093 64.0428 14.9953L66.1807 17.0999C68.5659 14.6769 71.2986 12.4631 74.2524 10.5439L72.6178 8.02827ZM57.3399 23.8696C56.4228 25.5423 55.6592 27.2668 55.076 29.0284L57.924 29.9712C58.4453 28.3964 59.1334 26.8386 59.9705 25.312L57.3399 23.8696ZM55.076 29.0284C54.4814 30.8245 54.0013 32.5972 53.6378 34.3447L56.5749 34.9557C56.9136 33.3277 57.363 31.6658 57.924 29.9712L55.076 29.0284ZM52.9438 45.3954C53.3006 49.1542 54.3012 52.7387 55.9532 56.1231L58.6491 54.8071C57.1574 51.751 56.2536 48.5168 55.9304 45.1119L52.9438 45.3954ZM62.3856 65.1577C64.7827 67.6332 67.6221 69.9442 70.8988 72.0853L72.5398 69.5739C69.4253 67.5388 66.7637 65.3664 64.5408 63.0708L62.3856 65.1577ZM80.4621 77.2942C82.0579 78.0222 83.7226 78.7235 85.4563 79.3978L86.5437 76.6018C84.8603 75.9471 83.2483 75.2678 81.7073 74.5648L80.4621 77.2942ZM85.4563 79.3978C87.1353 80.0507 88.9638 80.417 90.9021 80.5434L91.0974 77.5498C89.4097 77.4397 87.8898 77.1253 86.5437 76.6018L85.4563 79.3978ZM101.54 79.3482C104.698 78.5593 108.034 77.4225 111.483 76.0161L110.35 73.2382C106.999 74.6047 103.801 75.6912 100.813 76.4376L101.54 79.3482ZM120.933 71.6647C123.93 70.1436 126.978 68.4772 130.04 66.706L128.538 64.1092C125.516 65.8572 122.517 67.4967 119.575 68.9894L120.933 71.6647ZM138.887 61.3389C141.792 59.4998 144.683 57.5993 147.53 55.6715L145.847 53.1876C143.024 55.1001 140.159 56.9834 137.283 58.8041L138.887 61.3389ZM156.004 49.7696C158.873 47.7183 161.662 45.6738 164.334 43.6755L162.537 41.273C159.881 43.2597 157.11 45.2914 154.259 47.329L156.004 49.7696ZM172.531 37.4208C175.484 35.1234 178.202 32.9614 180.619 31.0097L178.734 28.6756C176.33 30.6171 173.626 32.7678 170.689 35.0531L172.531 37.4208ZM188.586 24.4527C189.831 23.4061 190.805 22.5767 191.468 22.0084C191.799 21.7242 192.053 21.5053 192.225 21.3571C192.31 21.2829 192.375 21.2265 192.419 21.1884C192.441 21.1694 192.458 21.155 192.469 21.1452C192.474 21.1403 192.479 21.1366 192.482 21.134C192.483 21.1328 192.484 21.1318 192.485 21.1311C192.485 21.1308 192.486 21.1305 192.486 21.1303C192.486 21.1302 192.486 21.1301 192.486 21.1301C192.486 21.1301 192.486 21.13 192.486 21.13C192.486 21.13 192.486 21.13 191.5 19.9998C190.514 18.8696 190.514 18.8696 190.514 18.8696C190.514 18.8696 190.514 18.8696 190.514 18.8696C190.514 18.8696 190.514 18.8696 190.514 18.8697C190.514 18.8698 190.513 18.87 190.513 18.8702C190.512 18.8707 190.512 18.8715 190.51 18.8726C190.508 18.8748 190.504 18.8782 190.499 18.8827C190.488 18.8918 190.472 18.9056 190.451 18.9239C190.409 18.9606 190.346 19.0156 190.262 19.0883C190.094 19.2337 189.843 19.4497 189.515 19.7308C188.859 20.2931 187.893 21.1159 186.656 22.1557L188.586 24.4527Z" fill="white"/>
</svg>
