<svg width="508" height="971" viewBox="0 0 508 971" fill="none" xmlns="http://www.w3.org/2000/svg">
<path fill-rule="evenodd" clip-rule="evenodd" d="M-401.562 572.522L-405.208 578.369L-408.73 584.309L-412.119 590.339L-415.368 596.457L-418.469 602.657L-421.416 608.936L-424.202 615.29L-426.821 621.714L-429.268 628.203L-431.538 634.752L-433.628 641.357L-435.532 648.011L-437.248 654.711L-438.774 661.449L-440.107 668.222L-441.246 675.023L-442.189 681.848L-442.936 688.69L-443.487 695.544L-443.842 702.406L-444 709.27L-443.963 716.13L-443.73 722.982L-443.303 729.82L-442.683 736.639L-441.87 743.435L-440.866 750.202L-439.67 756.934L-438.284 763.626L-436.707 770.274L-434.941 776.87L-432.983 783.41L-430.835 789.887L-428.493 796.294L-425.959 802.624L-423.229 808.871L-420.304 815.027L-417.183 821.085L-413.867 827.039L-410.356 832.88L-406.651 838.604L-402.755 844.202L-398.667 849.669L-394.392 854.997L-389.933 860.181L-385.291 865.214L-380.472 870.091L-375.479 874.807L-370.316 879.356L-364.99 883.733L-359.504 887.934L-353.866 891.954L-348.081 895.79L-342.155 899.439L-336.095 902.897L-329.909 906.162L-323.603 909.232L-317.185 912.106L-310.664 914.781L-304.046 917.259L-297.34 919.537L-290.555 921.617L-283.699 923.5L-276.78 925.187L-269.807 926.68L-262.789 927.98L-255.734 929.092L-248.649 930.017L-241.545 930.76L-234.429 931.326L-227.31 931.717L-220.194 931.94L-213.091 932L-206.007 931.902L-198.95 931.653L-191.927 931.258L-184.944 930.725L-178.008 930.06L-171.126 929.271L-164.302 928.363L-157.542 927.346L-150.851 926.226L-144.233 925.011L-137.692 923.708L-131.233 922.326L-124.859 920.871L-118.572 919.352L-112.374 917.776L-106.269 916.15L-100.257 914.483L-94.3397 912.78L-88.519 911.051L-82.7953 909.304L-77.1691 907.545L-71.6404 905.784L-66.2092 904.028L-60.8747 902.284L-55.6362 900.561L-50.4921 898.867L-45.4412 897.208L-40.4811 895.593L-35.6097 894.028L-30.8244 892.521L-26.1221 891.079L-21.4996 889.709L-16.9532 888.416L-12.4791 887.208L-8.073 886.091L-3.73065 885.071L0.552826 884.154L4.78232 883.346L8.96304 882.652L13.1005 882.079L17.2004 881.633L21.2688 881.318L25.3117 881.141L29.3359 881.105L33.3481 881.215L37.3552 881.472L41.3644 881.878L45.3828 882.432L49.4174 883.133L53.4754 883.978L57.5637 884.965L61.6888 886.089L65.8572 887.343L70.0749 888.721L74.3475 890.214L78.6801 891.813L83.0774 893.509L87.5434 895.29L92.0815 897.144L96.6943 899.059L101.384 901.022L106.151 903.017L110.997 905.031L115.921 907.048L120.922 909.054L125.998 911.032L131.146 912.966L136.362 914.841L141.642 916.64L146.981 918.348L152.372 919.949L157.809 921.429L163.284 922.772L168.79 923.964L174.317 924.992L179.856 925.843L185.397 926.505L190.931 926.967L196.446 927.218L201.932 927.25L207.379 927.054L212.775 926.624L218.108 925.954L223.369 925.04L228.546 923.878L233.63 922.467L238.609 920.806L243.474 918.895L248.216 916.737L252.827 914.335L257.298 911.693L261.623 908.818L265.795 905.715L269.809 902.393L273.66 898.861L277.345 895.129L280.862 891.208L284.21 887.109L287.389 882.847L290.402 878.436L293.252 873.89L295.943 869.226L298.484 864.46L300.88 859.607L303.142 854.686L305.28 849.713L307.305 844.703L309.231 839.674L311.069 834.641L312.836 829.619L314.546 824.622L316.215 819.664L317.858 814.757L319.493 809.912L321.135 805.14L322.8 800.448L324.506 795.843L326.266 791.333L328.095 786.92L330.008 782.608L332.016 778.398L334.132 774.288L336.364 770.277L338.722 766.362L341.213 762.539L343.844 758.802L346.622 755.146L349.549 751.564L352.631 748.05L355.869 744.594L359.265 741.189L362.817 737.825L366.524 734.493L370.384 731.183L374.392 727.885L378.543 724.59L382.829 721.286L387.243 717.963L391.775 714.611L396.415 711.221L401.151 707.781L405.97 704.284L410.859 700.72L415.802 697.08L420.785 693.356L425.791 689.542L430.802 685.631L435.802 681.617L440.773 677.494L445.695 673.259L450.551 668.909L455.322 664.441L459.99 659.853L464.534 655.146L468.939 650.319L473.185 645.374L477.254 640.313L481.131 635.14L484.799 629.858L488.242 624.473L491.447 618.99L494.399 613.416L497.087 607.758L499.499 602.024L501.625 596.222L503.456 590.362L504.987 584.452L506.21 578.502L507.121 572.522L507.718 566.523L508 560.515L507.966 554.508L507.619 548.511L506.961 542.536L505.998 536.591L504.735 530.687L503.181 524.832L501.344 519.035L499.235 513.303L496.865 507.644L494.246 502.065L491.391 496.571L488.316 491.167L485.035 485.858L481.563 480.648L477.917 475.538L474.113 470.531L470.168 465.627L466.1 460.827L461.925 456.129L457.66 451.532L453.323 447.033L448.93 442.629L444.497 438.316L440.04 434.089L435.574 429.944L431.112 425.873L426.667 421.871L422.254 417.932L417.881 414.048L413.559 410.212L409.297 406.418L405.101 402.658L400.979 398.926L396.935 395.214L392.974 391.516L389.099 387.825L385.315 384.132L381.623 380.432L378.027 376.717L374.528 372.981L371.126 369.216L367.821 365.415L364.614 361.573L361.502 357.684L358.485 353.74L355.56 349.737L352.725 345.669L349.976 341.531L347.308 337.319L344.719 333.029L342.203 328.657L339.754 324.198L337.368 319.652L335.037 315.015L332.757 310.286L330.519 305.462L328.318 300.544L326.145 295.531L323.994 290.422L321.857 285.22L319.727 279.925L317.595 274.538L315.454 269.062L313.296 263.5L311.114 257.855L308.899 252.13L306.644 246.33L304.342 240.459L301.985 234.522L299.566 228.524L297.078 222.472L294.514 216.37L291.869 210.227L289.135 204.047L286.307 197.839L283.379 191.609L280.347 185.365L277.205 179.114L273.949 172.864L270.574 166.622L267.079 160.398L263.458 154.198L259.709 148.031L255.829 141.906L251.818 135.829L247.672 129.809L243.391 123.854L238.974 117.972L234.42 112.17L229.731 106.456L224.906 100.835L219.946 95.3134L214.854 89.8981L209.63 84.5942L204.277 79.4069L198.797 74.3412L193.192 69.4019L187.465 64.5933L181.619 59.9197L175.658 55.3854L169.584 50.9941L163.4 46.75L157.111 42.657L150.719 38.719L144.229 34.94L137.644 31.3243L130.968 27.8763L124.204 24.6005L117.358 21.5018L110.434 18.5856L103.435 15.8574L96.3663 13.3233L89.2332 10.9899L82.0404 8.86379L74.7935 6.95136L67.4981 5.25874L60.1603 3.79169L52.7863 2.55561L45.3828 1.55549L37.9563 0.795946L30.514 0.281124L23.063 0.0147324L15.6106 0L8.16425 0.239661L0.731628 0.735938L-6.67963 1.49053L-14.0618 2.50458L-21.407 3.77872L-28.7075 5.31297L-35.9555 7.10682L-43.1432 9.15917L-50.2632 11.4684L-57.3078 14.0322L-64.2697 16.8478L-71.1415 19.9118L-77.9164 23.2203L-84.5875 26.7688L-91.1483 30.5524L-97.5925 34.5654L-103.914 38.8019L-110.108 43.2555L-116.168 47.919L-122.089 52.7853L-127.868 57.8465L-133.5 63.0944L-138.982 68.5206L-144.309 74.1164L-149.48 79.8726L-154.492 85.7799L-159.343 91.8289L-164.031 98.01L-168.556 104.313L-172.918 110.729L-177.115 117.247L-181.149 123.858L-185.02 130.551L-188.729 137.317L-192.279 144.146L-195.671 151.029L-198.907 157.955L-201.991 164.917L-204.925 171.904L-207.714 178.908L-210.36 185.92L-212.869 192.933L-215.243 199.939L-217.488 206.929L-219.608 213.897L-221.609 220.836L-223.496 227.739L-225.275 234.599L-226.95 241.411L-228.529 248.168L-230.017 254.865L-231.422 261.497L-232.748 268.059L-234.003 274.547L-235.193 280.958L-236.326 287.286L-237.407 293.531L-238.443 299.688L-239.441 305.755L-240.409 311.73L-241.352 317.611L-242.278 323.397L-243.194 329.087L-244.107 334.679L-245.025 340.173L-245.955 345.568L-246.905 350.863L-247.883 356.059L-248.898 361.155L-249.958 366.151L-251.072 371.048L-252.251 375.845L-253.502 380.544L-254.833 385.148L-256.253 389.658L-257.769 394.078L-259.388 398.411L-261.114 402.662L-262.954 406.836L-264.913 410.937L-266.995 414.972L-269.202 418.947L-271.537 422.868L-274.003 426.742L-276.6 430.576L-279.329 434.378L-282.19 438.154L-285.18 441.912L-288.299 445.661L-291.543 449.407L-294.91 453.159L-298.395 456.924L-301.993 460.71L-305.7 464.524L-309.509 468.373L-313.413 472.265L-317.405 476.206L-321.479 480.203L-325.624 484.263L-329.834 488.39L-334.098 492.59L-338.408 496.87L-342.754 501.232L-347.125 505.681L-351.512 510.222L-355.904 514.857L-360.291 519.589L-364.662 524.421L-369.007 529.354L-373.314 534.39L-377.574 539.529L-381.775 544.772L-385.909 550.119L-389.964 555.568L-393.931 561.12L-397.8 566.772L-401.562 572.522Z" fill="#183DB8"/>
<path opacity="0.2" fill-rule="evenodd" clip-rule="evenodd" d="M-472.128 562.607L-475.468 567.965L-478.694 573.408L-481.798 578.933L-484.774 584.539L-487.615 590.22L-490.314 595.973L-492.866 601.795L-495.265 607.682L-497.506 613.628L-499.586 619.629L-501.499 625.681L-503.243 631.779L-504.815 637.917L-506.213 644.092L-507.434 650.298L-508.477 656.53L-509.341 662.783L-510.026 669.053L-510.53 675.333L-510.855 681.621L-511 687.91L-510.966 694.196L-510.753 700.475L-510.362 706.741L-509.794 712.989L-509.049 719.216L-508.129 725.416L-507.034 731.585L-505.764 737.718L-504.32 743.809L-502.702 749.853L-500.909 755.846L-498.941 761.78L-496.797 767.651L-494.475 773.452L-491.975 779.175L-489.295 784.816L-486.437 790.367L-483.399 795.823L-480.183 801.176L-476.79 806.42L-473.221 811.55L-469.477 816.559L-465.561 821.441L-461.476 826.191L-457.225 830.803L-452.81 835.273L-448.237 839.594L-443.508 843.762L-438.629 847.772L-433.605 851.622L-428.44 855.305L-423.141 858.821L-417.713 862.164L-412.163 865.333L-406.496 868.325L-400.72 871.138L-394.842 873.771L-388.868 876.222L-382.807 878.492L-376.665 880.58L-370.45 882.486L-364.17 884.212L-357.832 885.757L-351.445 887.125L-345.017 888.317L-338.554 889.335L-332.065 890.183L-325.558 890.864L-319.04 891.382L-312.519 891.741L-306.001 891.945L-299.495 892L-293.006 891.91L-286.542 891.682L-280.109 891.32L-273.713 890.832L-267.361 890.223L-261.056 889.499L-254.806 888.668L-248.614 887.735L-242.485 886.709L-236.423 885.596L-230.433 884.402L-224.516 883.136L-218.677 881.803L-212.919 880.411L-207.242 878.967L-201.649 877.477L-196.143 875.949L-190.723 874.389L-185.391 872.805L-180.149 871.203L-174.995 869.592L-169.931 867.978L-164.956 866.369L-160.07 864.771L-155.272 863.193L-150.56 861.64L-145.934 860.12L-141.39 858.64L-136.928 857.206L-132.545 855.825L-128.238 854.504L-124.004 853.248L-119.839 852.064L-115.741 850.957L-111.706 849.933L-107.728 848.999L-103.805 848.158L-99.9305 847.418L-96.1011 846.782L-92.3113 846.257L-88.5559 845.848L-84.8295 845.56L-81.1263 845.397L-77.4402 845.365L-73.7652 845.465L-70.0948 845.701L-66.4225 846.072L-62.7418 846.58L-59.0462 847.222L-55.3292 847.997L-51.5846 848.902L-47.8061 849.931L-43.988 851.08L-40.1247 852.343L-36.2112 853.711L-32.2426 855.176L-28.2148 856.73L-24.1241 858.362L-19.9674 860.061L-15.7422 861.816L-11.4467 863.614L-7.07983 865.443L-2.64105 867.288L1.8692 869.137L6.44989 870.974L11.0992 872.786L15.8144 874.559L20.5923 876.277L25.4286 877.925L30.3187 879.491L35.2569 880.958L40.237 882.314L45.2521 883.544L50.2949 884.637L55.3573 885.579L60.4308 886.358L65.5066 886.965L70.5752 887.388L75.6271 887.618L80.6524 887.647L85.6412 887.468L90.5834 887.074L95.4689 886.46L100.288 885.622L105.03 884.558L109.686 883.265L114.247 881.742L118.703 879.992L123.047 878.014L127.27 875.813L131.366 873.393L135.327 870.758L139.148 867.915L142.825 864.871L146.352 861.635L149.728 858.215L152.949 854.622L156.016 850.866L158.928 846.961L161.687 842.919L164.298 838.753L166.763 834.479L169.09 830.112L171.285 825.666L173.357 821.157L175.316 816.599L177.171 812.009L178.934 807.401L180.618 802.789L182.236 798.187L183.803 793.609L185.331 789.066L186.836 784.569L188.334 780.13L189.838 775.757L191.363 771.457L192.925 767.238L194.537 763.105L196.213 759.062L197.965 755.111L199.805 751.253L201.743 747.487L203.787 743.812L205.947 740.224L208.229 736.721L210.639 733.297L213.183 729.947L215.865 726.665L218.687 723.445L221.653 720.278L224.763 717.158L228.017 714.075L231.413 711.022L234.948 707.99L238.62 704.968L242.421 701.948L246.348 698.92L250.391 695.876L254.542 692.805L258.792 689.698L263.13 686.546L267.544 683.342L272.022 680.076L276.55 676.74L281.114 673.329L285.699 669.834L290.289 666.25L294.869 662.571L299.422 658.794L303.931 654.913L308.379 650.927L312.749 646.833L317.024 642.629L321.187 638.316L325.221 633.893L329.11 629.362L332.838 624.725L336.389 619.984L339.749 615.145L342.903 610.21L345.838 605.186L348.542 600.079L351.004 594.894L353.213 589.64L355.16 584.324L356.838 578.954L358.24 573.538L359.36 568.086L360.195 562.607L360.742 557.11L361 551.605L360.969 546.1L360.651 540.606L360.048 535.13L359.166 529.684L358.009 524.273L356.586 518.908L354.903 513.596L352.971 508.344L350.8 503.159L348.401 498.046L345.787 493.012L342.97 488.061L339.964 483.196L336.784 478.422L333.445 473.74L329.96 469.152L326.347 464.658L322.621 460.26L318.797 455.955L314.891 451.743L310.918 447.62L306.894 443.585L302.834 439.633L298.751 435.76L294.66 431.961L290.573 428.231L286.502 424.564L282.459 420.955L278.454 417.396L274.495 413.881L270.591 410.404L266.748 406.959L262.972 403.539L259.268 400.138L255.64 396.75L252.091 393.367L248.624 389.984L245.243 386.594L241.949 383.19L238.744 379.766L235.628 376.316L232.601 372.833L229.663 369.313L226.813 365.749L224.049 362.135L221.37 358.467L218.773 354.739L216.255 350.948L213.812 347.089L211.44 343.158L209.135 339.151L206.892 335.066L204.706 330.9L202.572 326.651L200.483 322.317L198.433 317.898L196.417 313.391L194.427 308.797L192.457 304.117L190.499 299.35L188.548 294.497L186.595 289.561L184.634 284.544L182.658 279.447L180.659 274.275L178.63 269.029L176.565 263.714L174.456 258.334L172.297 252.894L170.082 247.399L167.803 241.853L165.454 236.262L163.031 230.633L160.527 224.97L157.936 219.282L155.255 213.573L152.477 207.851L149.599 202.123L146.617 196.396L143.526 190.678L140.324 184.974L137.007 179.293L133.574 173.643L130.02 168.029L126.346 162.461L122.548 156.945L118.627 151.489L114.581 146.099L110.41 140.783L106.115 135.546L101.695 130.396L97.1526 125.336L92.4881 120.374L87.7032 115.514L82.7998 110.761L77.7801 106.12L72.6462 101.594L67.4008 97.1874L62.0464 92.905L56.5859 88.7501L51.0222 84.7264L45.3583 80.8375L39.5975 77.087L33.7429 73.4785L27.798 70.0158L21.7662 66.7028L15.651 63.5433L9.45615 60.5416L3.18539 57.7023L-3.15741 55.0301L-9.56815 52.5303L-16.0426 50.2083L-22.5763 48.0702L-29.1646 46.122L-35.8026 44.3696L-42.4849 42.8186L-49.2061 41.4744L-55.9604 40.3417L-62.7418 39.4253L-69.5442 38.7293L-76.3611 38.2576L-83.186 38.0135L-90.0122 38L-96.8328 38.2196L-103.641 38.6743L-110.429 39.3658L-117.191 40.295L-123.919 41.4625L-130.606 42.8683L-137.245 44.512L-143.829 46.3926L-150.35 48.5086L-156.803 50.8578L-163.18 53.4378L-169.474 56.2453L-175.68 59.277L-181.79 62.5285L-187.8 65.9954L-193.702 69.6726L-199.493 73.5546L-205.166 77.6354L-210.717 81.9086L-216.141 86.3676L-221.434 91.0052L-226.593 95.814L-231.614 100.786L-236.493 105.913L-241.23 111.188L-245.82 116.601L-250.263 122.144L-254.558 127.807L-258.703 133.583L-262.698 139.462L-266.542 145.434L-270.237 151.492L-273.783 157.625L-277.18 163.825L-280.432 170.082L-283.539 176.389L-286.503 182.736L-289.328 189.115L-292.016 195.517L-294.57 201.935L-296.994 208.361L-299.291 214.787L-301.466 221.206L-303.523 227.611L-305.465 233.996L-307.298 240.354L-309.026 246.679L-310.655 252.965L-312.19 259.207L-313.636 265.398L-314.999 271.535L-316.285 277.612L-317.5 283.625L-318.65 289.57L-319.74 295.444L-320.777 301.243L-321.767 306.965L-322.716 312.606L-323.631 318.166L-324.517 323.641L-325.381 329.03L-326.229 334.332L-327.068 339.545L-327.905 344.669L-328.746 349.703L-329.597 354.647L-330.467 359.499L-331.363 364.26L-332.293 368.93L-333.264 373.508L-334.285 377.994L-335.364 382.39L-336.51 386.696L-337.73 390.914L-339.03 395.047L-340.419 399.097L-341.901 403.068L-343.483 406.963L-345.168 410.787L-346.963 414.545L-348.869 418.243L-350.891 421.885L-353.03 425.478L-355.289 429.028L-357.668 432.541L-360.167 436.024L-362.787 439.484L-365.526 442.928L-368.383 446.363L-371.355 449.796L-374.439 453.233L-377.631 456.683L-380.927 460.152L-384.322 463.647L-387.81 467.174L-391.386 470.741L-395.044 474.352L-398.775 478.015L-402.572 481.734L-406.428 485.516L-410.334 489.365L-414.282 493.286L-418.262 497.283L-422.266 501.36L-426.284 505.521L-430.307 509.768L-434.326 514.104L-438.329 518.532L-442.309 523.052L-446.254 527.666L-450.156 532.375L-454.004 537.179L-457.791 542.079L-461.505 547.072L-465.138 552.159L-468.682 557.338L-472.128 562.607Z" fill="#4350C9"/>
<path opacity="0.2" fill-rule="evenodd" clip-rule="evenodd" d="M-365.128 641.607L-368.468 646.965L-371.694 652.408L-374.798 657.933L-377.774 663.539L-380.615 669.22L-383.314 674.973L-385.866 680.795L-388.265 686.682L-390.506 692.628L-392.586 698.629L-394.499 704.681L-396.243 710.779L-397.815 716.917L-399.213 723.092L-400.434 729.298L-401.477 735.53L-402.341 741.783L-403.026 748.053L-403.53 754.333L-403.855 760.621L-404 766.91L-403.966 773.196L-403.753 779.475L-403.362 785.741L-402.794 791.989L-402.049 798.216L-401.129 804.416L-400.034 810.585L-398.764 816.718L-397.32 822.809L-395.702 828.853L-393.909 834.846L-391.941 840.78L-389.797 846.651L-387.475 852.452L-384.975 858.175L-382.295 863.816L-379.437 869.367L-376.399 874.823L-373.183 880.176L-369.79 885.42L-366.221 890.55L-362.477 895.559L-358.561 900.441L-354.476 905.191L-350.225 909.803L-345.81 914.273L-341.237 918.594L-336.508 922.762L-331.629 926.772L-326.605 930.622L-321.44 934.305L-316.141 937.821L-310.713 941.164L-305.163 944.333L-299.496 947.325L-293.72 950.138L-287.842 952.771L-281.868 955.222L-275.807 957.492L-269.665 959.58L-263.45 961.486L-257.17 963.212L-250.832 964.757L-244.445 966.125L-238.017 967.317L-231.554 968.335L-225.065 969.183L-218.558 969.864L-212.04 970.382L-205.519 970.741L-199.001 970.945L-192.495 971L-186.006 970.91L-179.542 970.682L-173.109 970.32L-166.713 969.832L-160.361 969.223L-154.056 968.499L-147.806 967.668L-141.614 966.735L-135.485 965.709L-129.423 964.596L-123.433 963.402L-117.516 962.136L-111.677 960.803L-105.919 959.411L-100.242 957.967L-94.6494 956.477L-89.1426 954.949L-83.723 953.389L-78.3914 951.805L-73.1487 950.203L-67.9952 948.592L-62.9312 946.978L-57.9563 945.369L-53.0701 943.771L-48.2718 942.193L-43.5601 940.64L-38.9335 939.12L-34.3903 937.64L-29.9283 936.206L-25.545 934.825L-21.2379 933.504L-17.0038 932.248L-12.8395 931.064L-8.74133 929.957L-4.70557 928.933L-0.728088 927.999L3.19543 927.158L7.06949 926.418L10.8989 925.782L14.6887 925.257L18.4441 924.848L22.1705 924.56L25.8737 924.397L29.5598 924.365L33.2348 924.465L36.9052 924.701L40.5775 925.072L44.2582 925.58L47.9538 926.222L51.6708 926.997L55.4154 927.902L59.1939 928.931L63.012 930.08L66.8753 931.343L70.7888 932.711L74.7574 934.176L78.7852 935.73L82.8759 937.362L87.0326 939.061L91.2578 940.816L95.5533 942.614L99.9202 944.443L104.359 946.288L108.869 948.137L113.45 949.974L118.099 951.786L122.814 953.559L127.592 955.277L132.429 956.925L137.319 958.491L142.257 959.958L147.237 961.314L152.252 962.544L157.295 963.637L162.357 964.579L167.431 965.358L172.507 965.965L177.575 966.388L182.627 966.618L187.652 966.647L192.641 966.468L197.583 966.074L202.469 965.46L207.288 964.622L212.03 963.558L216.686 962.265L221.247 960.742L225.703 958.992L230.047 957.014L234.27 954.813L238.366 952.393L242.327 949.758L246.148 946.915L249.825 943.871L253.352 940.635L256.728 937.215L259.949 933.622L263.016 929.866L265.928 925.961L268.687 921.919L271.298 917.753L273.763 913.479L276.09 909.112L278.285 904.666L280.357 900.157L282.316 895.599L284.171 891.009L285.934 886.401L287.618 881.789L289.236 877.187L290.803 872.609L292.331 868.066L293.836 863.569L295.334 859.13L296.838 854.757L298.363 850.457L299.925 846.238L301.537 842.105L303.213 838.062L304.965 834.111L306.805 830.253L308.743 826.487L310.787 822.812L312.947 819.224L315.229 815.721L317.639 812.297L320.183 808.947L322.865 805.665L325.687 802.445L328.653 799.278L331.763 796.158L335.017 793.075L338.413 790.022L341.948 786.99L345.62 783.968L349.421 780.948L353.348 777.92L357.391 774.876L361.542 771.805L365.792 768.698L370.13 765.546L374.544 762.342L379.022 759.076L383.55 755.74L388.114 752.329L392.699 748.834L397.289 745.25L401.869 741.571L406.422 737.794L410.931 733.913L415.379 729.927L419.749 725.833L424.024 721.629L428.187 717.316L432.221 712.893L436.11 708.362L439.838 703.725L443.389 698.984L446.749 694.145L449.903 689.21L452.838 684.186L455.542 679.079L458.004 673.894L460.213 668.64L462.16 663.324L463.838 657.954L465.24 652.538L466.36 647.086L467.195 641.607L467.742 636.11L468 630.605L467.969 625.1L467.651 619.606L467.048 614.13L466.166 608.684L465.009 603.273L463.586 597.908L461.903 592.596L459.971 587.344L457.8 582.159L455.401 577.046L452.787 572.012L449.97 567.061L446.964 562.196L443.784 557.422L440.445 552.74L436.96 548.152L433.347 543.658L429.621 539.26L425.797 534.955L421.891 530.743L417.918 526.62L413.894 522.585L409.834 518.633L405.751 514.76L401.66 510.961L397.573 507.231L393.502 503.564L389.459 499.955L385.454 496.396L381.495 492.881L377.591 489.404L373.748 485.959L369.972 482.539L366.268 479.138L362.64 475.75L359.091 472.367L355.624 468.984L352.243 465.594L348.949 462.19L345.744 458.766L342.628 455.316L339.601 451.833L336.663 448.313L333.813 444.749L331.049 441.135L328.37 437.467L325.773 433.739L323.255 429.948L320.812 426.089L318.44 422.158L316.135 418.151L313.892 414.066L311.706 409.9L309.572 405.651L307.483 401.317L305.433 396.898L303.417 392.391L301.427 387.797L299.457 383.117L297.499 378.35L295.548 373.497L293.595 368.561L291.634 363.544L289.658 358.447L287.659 353.275L285.63 348.029L283.565 342.714L281.456 337.334L279.297 331.894L277.082 326.399L274.803 320.853L272.454 315.262L270.031 309.633L267.527 303.97L264.936 298.282L262.255 292.573L259.477 286.851L256.599 281.123L253.617 275.396L250.526 269.678L247.324 263.974L244.007 258.293L240.574 252.643L237.02 247.029L233.346 241.461L229.548 235.945L225.627 230.489L221.581 225.099L217.41 219.783L213.115 214.546L208.695 209.396L204.153 204.336L199.488 199.374L194.703 194.514L189.8 189.761L184.78 185.12L179.646 180.594L174.401 176.187L169.046 171.905L163.586 167.75L158.022 163.726L152.358 159.837L146.597 156.087L140.743 152.479L134.798 149.016L128.766 145.703L122.651 142.543L116.456 139.542L110.185 136.702L103.843 134.03L97.4319 131.53L90.9574 129.208L84.4237 127.07L77.8354 125.122L71.1974 123.37L64.5151 121.819L57.7939 120.474L51.0396 119.342L44.2582 118.425L37.4558 117.729L30.6389 117.258L23.814 117.013L16.9878 117L10.1672 117.22L3.35922 117.674L-3.42926 118.366L-10.191 119.295L-16.919 120.462L-23.606 121.868L-30.2449 123.512L-36.8287 125.393L-43.3503 127.509L-49.803 129.858L-56.1798 132.438L-62.4742 135.245L-68.6798 138.277L-74.7903 141.528L-80.7997 144.995L-86.7024 148.673L-92.4928 152.555L-98.1659 156.635L-103.717 160.909L-109.141 165.368L-114.434 170.005L-119.593 174.814L-124.614 179.786L-129.493 184.913L-134.23 190.188L-138.82 195.601L-143.263 201.144L-147.558 206.807L-151.703 212.583L-155.698 218.462L-159.542 224.434L-163.237 230.492L-166.783 236.625L-170.18 242.825L-173.432 249.082L-176.539 255.389L-179.503 261.736L-182.328 268.115L-185.016 274.517L-187.57 280.935L-189.994 287.361L-192.291 293.787L-194.466 300.206L-196.523 306.611L-198.465 312.996L-200.298 319.354L-202.026 325.679L-203.655 331.965L-205.19 338.207L-206.636 344.398L-207.999 350.535L-209.285 356.612L-210.5 362.625L-211.65 368.57L-212.74 374.444L-213.777 380.243L-214.767 385.965L-215.716 391.606L-216.631 397.166L-217.517 402.641L-218.381 408.03L-219.229 413.332L-220.068 418.545L-220.905 423.669L-221.746 428.703L-222.597 433.647L-223.467 438.499L-224.363 443.26L-225.293 447.93L-226.264 452.508L-227.285 456.994L-228.364 461.39L-229.51 465.696L-230.73 469.914L-232.03 474.047L-233.419 478.097L-234.901 482.068L-236.483 485.963L-238.168 489.787L-239.963 493.545L-241.869 497.243L-243.891 500.885L-246.03 504.478L-248.289 508.028L-250.668 511.541L-253.167 515.024L-255.787 518.484L-258.526 521.928L-261.383 525.363L-264.355 528.796L-267.439 532.233L-270.631 535.683L-273.927 539.152L-277.322 542.647L-280.81 546.174L-284.386 549.741L-288.044 553.352L-291.775 557.015L-295.572 560.734L-299.428 564.516L-303.334 568.365L-307.282 572.286L-311.262 576.283L-315.266 580.36L-319.284 584.521L-323.307 588.768L-327.326 593.104L-331.329 597.532L-335.309 602.052L-339.254 606.666L-343.156 611.375L-347.004 616.179L-350.791 621.079L-354.505 626.072L-358.138 631.159L-361.682 636.338L-365.128 641.607Z" fill="#4350C9"/>
</svg>
