<svg width="193" height="92" viewBox="0 0 193 92" fill="none" xmlns="http://www.w3.org/2000/svg">
<path opacity="0.3" d="M136 29.9754L134.576 30.4468L136 29.9754ZM192.5 86.4753L175.846 91.2325L180.053 74.4308L192.5 86.4753ZM176.922 83.9547C173.869 83.1129 170.455 82.1477 166.772 81.0691L167.616 78.1901C171.282 79.2638 174.68 80.2247 177.719 81.0626L176.922 83.9547ZM156.712 78.0338C153.478 77.0288 150.125 75.9577 146.7 74.8254L147.641 71.977C151.049 73.1032 154.384 74.1688 157.603 75.169L156.712 78.0338ZM136.732 71.4198C133.448 70.2592 130.138 69.0493 126.841 67.7941L127.909 64.9904C131.181 66.2362 134.468 67.4378 137.731 68.5912L136.732 71.4198ZM117.041 63.9033C113.754 62.5395 110.516 61.1325 107.369 59.6864L108.621 56.9603C111.731 58.389 114.933 59.781 118.191 61.1322L117.041 63.9033ZM97.8844 55.0511C94.6268 53.3501 91.5289 51.6033 88.6475 49.8163L90.2286 47.2668C93.037 49.0086 96.0694 50.719 99.273 52.3919L97.8844 55.0511ZM79.9071 43.706C76.8326 41.238 74.2139 38.6862 72.2074 36.0591L74.5916 34.2382C76.4103 36.6195 78.8392 39.0017 81.7851 41.3665L79.9071 43.706ZM67.8429 25.7687C67.6946 23.8474 67.9288 21.9174 68.5791 19.9948L71.4209 20.956C70.8993 22.4983 70.717 24.0229 70.834 25.5379L67.8429 25.7687ZM68.5791 19.9948C69.2107 18.1274 69.9464 16.4045 70.777 14.8212L73.4336 16.2149C72.6804 17.6506 72.0054 19.2279 71.4209 20.956L68.5791 19.9948ZM77.8871 6.06876C80.9502 3.6396 84.428 2.07216 88.1164 1.23821L88.778 4.16434C85.4889 4.90802 82.4312 6.294 79.7512 8.41932L77.8871 6.06876ZM99.3064 0.763149C102.909 1.19186 106.539 2.1308 110.055 3.48053L108.98 6.28128C105.67 5.01087 102.282 4.13845 98.9519 3.74213L99.3064 0.763149ZM119.882 8.50385C123.008 10.535 125.912 12.8849 128.457 15.4709L126.319 17.5755C123.934 15.1525 121.201 12.9387 118.248 11.0195L119.882 8.50385ZM135.16 24.3452C136.077 26.0179 136.841 27.7424 137.424 29.504L134.576 30.4468C134.055 28.872 133.367 27.3142 132.53 25.7875L135.16 24.3452ZM137.424 29.504C138.019 31.3001 138.499 33.0728 138.862 34.8203L135.925 35.4313C135.586 33.8033 135.137 32.1414 134.576 30.4468L137.424 29.504ZM139.556 45.871C139.199 49.6298 138.199 53.2143 136.547 56.5987L133.851 55.2827C135.343 52.2266 136.246 48.9924 136.57 45.5874L139.556 45.871ZM130.114 65.6333C127.717 68.1088 124.878 70.4198 121.601 72.5609L119.96 70.0495C123.075 68.0144 125.736 65.842 127.959 63.5464L130.114 65.6333ZM112.038 77.7698C110.442 78.4978 108.777 79.1991 107.044 79.8734L105.956 77.0774C107.64 76.4227 109.252 75.7434 110.793 75.0404L112.038 77.7698ZM107.044 79.8734C105.365 80.5263 103.536 80.8925 101.598 81.019L101.403 78.0254C103.09 77.9153 104.61 77.6009 105.956 77.0774L107.044 79.8734ZM90.96 79.8238C87.8017 79.0349 84.4656 77.8981 81.0172 76.4917L82.1501 73.7138C85.5006 75.0802 88.6985 76.1668 91.687 76.9132L90.96 79.8238ZM71.5672 72.1402C68.5696 70.6192 65.5221 68.9528 62.46 67.1816L63.9621 64.5848C66.9841 66.3327 69.9831 67.9723 72.9248 69.465L71.5672 72.1402ZM53.6129 61.8145C50.7075 59.9754 47.8167 58.0749 44.9704 56.1471L46.6527 53.6632C49.4764 55.5757 52.3411 57.459 55.2174 59.2797L53.6129 61.8145ZM36.4963 50.2452C33.6266 48.1939 30.8383 46.1494 28.1662 44.1511L29.9628 41.7486C32.6195 43.7353 35.3904 45.767 38.2409 47.8046L36.4963 50.2452ZM19.9692 37.8964C17.0164 35.599 14.2984 33.437 11.8812 31.4853L13.7658 29.1512C16.1705 31.0927 18.8742 33.2434 21.8114 35.5286L19.9692 37.8964ZM3.91449 24.9283C2.66866 23.8816 1.69501 23.0523 1.03207 22.484C0.700607 22.1998 0.446793 21.9809 0.275482 21.8326C0.189819 21.7585 0.124771 21.7021 0.0809631 21.664C0.0590515 21.645 0.04245 21.6305 0.0312195 21.6208C0.0256042 21.6159 0.021347 21.6122 0.0184326 21.6096C0.016983 21.6084 0.0158539 21.6074 0.0150757 21.6067C0.0146942 21.6064 0.014389 21.6061 0.0141754 21.6059C0.0140686 21.6058 0.0139771 21.6057 0.0139008 21.6057C0.0138702 21.6056 0.0138397 21.6056 0.0138245 21.6056C0.0137939 21.6056 0.0137634 21.6056 1 20.4754C1.98624 19.3452 1.98622 19.3451 1.98621 19.3451C1.98621 19.3451 1.98621 19.3451 1.98622 19.3451C1.98624 19.3452 1.98628 19.3452 1.98634 19.3453C1.98647 19.3454 1.98666 19.3455 1.98695 19.3458C1.98755 19.3463 1.98846 19.3471 1.98973 19.3482C1.99225 19.3504 1.99612 19.3538 2.00134 19.3583C2.01178 19.3674 2.02759 19.3812 2.04871 19.3995C2.09091 19.4362 2.15433 19.4912 2.23834 19.5639C2.40636 19.7093 2.65672 19.9252 2.98466 20.2064C3.64052 20.7687 4.60654 21.5915 5.84419 22.6313L3.91449 24.9283Z" fill="black"/>
</svg>
