<svg width="366" height="202" viewBox="0 0 366 202" fill="none" xmlns="http://www.w3.org/2000/svg">
<g filter="url(#filter0_d_2_7873)">
<path d="M7 23.967V133.385C7 144.411 18.9055 151.907 29.9283 151.641C43.9789 151.303 57.1778 155.649 73.1839 155.649H93.3093C97.1138 155.649 100.198 158.733 100.198 162.538C100.198 167.987 106.226 171.279 110.81 168.333L126.849 158.029C129.267 156.475 132.082 155.649 134.956 155.649H321C329.284 155.649 336 148.933 336 140.649V23.967C336 15.6828 329.284 8.96704 321 8.96704H22C13.7157 8.96704 7 15.6828 7 23.967Z" fill="url(#paint0_linear_2_7873)"/>
<path d="M7 23.967V133.385C7 144.411 18.9055 151.907 29.9283 151.641C43.9789 151.303 57.1778 155.649 73.1839 155.649H93.3093C97.1138 155.649 100.198 158.733 100.198 162.538C100.198 167.987 106.226 171.279 110.81 168.333L126.849 158.029C129.267 156.475 132.082 155.649 134.956 155.649H321C329.284 155.649 336 148.933 336 140.649V23.967C336 15.6828 329.284 8.96704 321 8.96704H22C13.7157 8.96704 7 15.6828 7 23.967Z" fill="#FAF7F7"/>
<path d="M8.5 133.385V23.967C8.5 16.5112 14.5442 10.467 22 10.467H321C328.456 10.467 334.5 16.5112 334.5 23.967V140.649C334.5 148.105 328.456 154.149 321 154.149H134.956C131.794 154.149 128.698 155.058 126.038 156.767L109.999 167.071C106.413 169.375 101.698 166.8 101.698 162.538C101.698 157.905 97.9422 154.149 93.3093 154.149H73.1839C65.3327 154.149 58.1575 153.087 51.1106 152.044L51.0424 152.034C44.0051 150.993 37.0668 149.969 29.8922 150.142C24.7101 150.267 19.3053 148.56 15.2223 145.542C11.15 142.531 8.5 138.31 8.5 133.385Z" stroke="url(#paint1_linear_2_7873)" stroke-width="3"/>
</g>
<defs>
<filter id="filter0_d_2_7873" x="0" y="0.967041" width="369" height="200.471" filterUnits="userSpaceOnUse" color-interpolation-filters="sRGB">
<feFlood flood-opacity="0" result="BackgroundImageFix"/>
<feColorMatrix in="SourceAlpha" type="matrix" values="0 0 0 0 0 0 0 0 0 0 0 0 0 0 0 0 0 0 127 0" result="hardAlpha"/>
<feOffset dx="13" dy="12"/>
<feGaussianBlur stdDeviation="10"/>
<feComposite in2="hardAlpha" operator="out"/>
<feColorMatrix type="matrix" values="0 0 0 0 0 0 0 0 0 0 0 0 0 0 0 0 0 0 0.1 0"/>
<feBlend mode="normal" in2="BackgroundImageFix" result="effect1_dropShadow_2_7873"/>
<feBlend mode="normal" in="SourceGraphic" in2="effect1_dropShadow_2_7873" result="shape"/>
</filter>
<linearGradient id="paint0_linear_2_7873" x1="25.0607" y1="112.183" x2="346.079" y2="107.679" gradientUnits="userSpaceOnUse">
<stop stop-color="#46D4A9"/>
<stop offset="1" stop-color="#6EE37B"/>
</linearGradient>
<linearGradient id="paint1_linear_2_7873" x1="18.9766" y1="-10.1212" x2="207.201" y2="257.56" gradientUnits="userSpaceOnUse">
<stop stop-color="white"/>
<stop offset="0.607661" stop-color="white" stop-opacity="0"/>
</linearGradient>
</defs>
</svg>
