<svg width="1440" height="387" viewBox="0 0 1440 387" fill="none" xmlns="http://www.w3.org/2000/svg">
<path opacity="0.5" d="M1554 327.764C1554 327.764 1343.66 162.012 1175.14 151.507C954.237 137.737 898.835 403.604 678.702 382.844C482.609 364.351 466.312 76.92 277.151 124.257C174.396 149.971 75.0001 280.801 75.0001 280.801" stroke="url(#paint0_linear_261_3)" stroke-width="6"/>
<path opacity="0.2" d="M100 84.8859C100 85.114 99.9999 85.3422 99.7722 85.5703L44.6549 140.772C44.4271 141 44.1993 141 43.9715 141C43.7437 141 43.516 141 43.2882 140.772L-11.8292 85.5703C-12.0569 85.3422 -12.0569 84.6578 -11.8292 84.4297L43.2882 29.2281C43.516 29 43.7437 29 43.9715 29C44.1992 29 44.4271 29 44.6549 29.2281L90.4342 75.0774C90.6619 75.3055 90.6619 75.9898 90.4342 76.2179L44.6549 122.067C44.4271 122.295 43.7438 122.295 43.5161 122.067L7.07483 85.5703C6.84707 85.3422 6.84707 84.6578 7.07483 84.4297L43.5161 47.9328C43.7438 47.7047 44.4271 47.7047 44.6549 47.9328L71.9858 75.3055C72.2136 75.5336 72.2136 76.2179 71.9858 76.446L62.8755 85.5703L44.8826 103.591C44.6548 103.819 43.9715 103.819 43.7438 103.591L25.7509 85.5703C25.5231 85.3422 25.5231 84.6578 25.7509 84.4297L43.7438 66.4094C43.9715 66.1813 44.6548 66.1813 44.8826 66.4094L62.42 83.9735L70.3915 75.9898L44.427 49.9858L9.35241 85.1141L44.427 120.242L89.0677 75.5336L44.427 30.8249L-9.55161 84.8859L44.427 138.947L98.8612 84.4297C99.089 84.2016 99.7723 84.2016 100 84.4297C99.7723 84.4297 100 84.6578 100 84.8859ZM43.9715 101.766L60.8256 84.8859L43.9715 68.0061L27.1175 84.8859L43.9715 101.766Z" fill="black"/>
<rect opacity="0.7" width="1440" height="344" fill="url(#paint1_linear_261_3)"/>
<defs>
<linearGradient id="paint0_linear_261_3" x1="1392.5" y1="251" x2="251.5" y2="268.5" gradientUnits="userSpaceOnUse">
<stop stop-color="#183DB8" stop-opacity="0.27"/>
<stop offset="0.970637" stop-color="#183DB8" stop-opacity="0"/>
</linearGradient>
<linearGradient id="paint1_linear_261_3" x1="720" y1="0" x2="720" y2="344" gradientUnits="userSpaceOnUse">
<stop stop-color="#183DB8" stop-opacity="0"/>
<stop offset="0.526042" stop-color="#183DB8" stop-opacity="0.25"/>
<stop offset="1" stop-color="#183DB8" stop-opacity="0"/>
</linearGradient>
</defs>
</svg>
