<svg width="1440" height="879" viewBox="0 0 1440 879" fill="none" xmlns="http://www.w3.org/2000/svg">
<path opacity="0.5" d="M-11 211.764C-11 211.764 199.341 46.0123 367.861 35.5072C588.763 21.7366 644.165 287.604 864.298 266.844C1060.39 248.351 1076.69 -39.08 1265.85 8.25699C1368.6 33.9711 1468 164.801 1468 164.801" stroke="url(#paint0_linear_63_3)" stroke-width="6"/>
<path opacity="0.2" d="M1468 577.35C1468 577.65 1468 577.949 1467.7 578.248L1395.36 650.701C1395.06 651 1394.76 651 1394.46 651C1394.16 651 1393.86 651 1393.57 650.701L1321.22 578.248C1320.93 577.949 1320.93 577.051 1321.22 576.752L1393.57 504.299C1393.86 504 1394.16 504 1394.46 504C1394.76 504 1395.06 504 1395.36 504.299L1455.44 564.477C1455.74 564.776 1455.74 565.674 1455.44 565.974L1395.36 626.151C1395.06 626.45 1394.16 626.45 1393.86 626.151L1346.04 578.248C1345.74 577.949 1345.74 577.051 1346.04 576.752L1393.86 528.849C1394.16 528.55 1395.06 528.55 1395.36 528.849L1431.23 564.776C1431.53 565.075 1431.53 565.974 1431.23 566.273L1419.27 578.248L1395.66 601.9C1395.36 602.2 1394.46 602.2 1394.16 601.9L1370.55 578.248C1370.25 577.949 1370.25 577.051 1370.55 576.752L1394.16 553.1C1394.46 552.8 1395.36 552.8 1395.66 553.1L1418.68 576.153L1429.14 565.674L1395.06 531.544L1349.03 577.65L1395.06 623.756L1453.65 565.075L1395.06 506.395L1324.21 577.35L1395.06 648.305L1466.51 576.752C1466.8 576.452 1467.7 576.452 1468 576.752C1467.7 576.752 1468 577.051 1468 577.35ZM1394.46 599.505L1416.58 577.35L1394.46 555.196L1372.34 577.35L1394.46 599.505Z" fill="black"/>
<rect opacity="0.7" y="305" width="1440" height="574" fill="url(#paint1_linear_63_3)"/>
<defs>
<linearGradient id="paint0_linear_63_3" x1="150.5" y1="135" x2="1291.5" y2="152.5" gradientUnits="userSpaceOnUse">
<stop stop-color="#183DB8" stop-opacity="0.27"/>
<stop offset="0.970637" stop-color="#183DB8" stop-opacity="0"/>
</linearGradient>
<linearGradient id="paint1_linear_63_3" x1="720" y1="305" x2="720" y2="879" gradientUnits="userSpaceOnUse">
<stop stop-color="#183DB8" stop-opacity="0"/>
<stop offset="0.526042" stop-color="#183DB8" stop-opacity="0.25"/>
<stop offset="1" stop-color="#183DB8" stop-opacity="0"/>
</linearGradient>
</defs>
</svg>
