<svg width="1440" height="574" viewBox="0 0 1440 574" fill="none" xmlns="http://www.w3.org/2000/svg">
<path opacity="0.5" d="M-11 269.764C-11 269.764 199.341 104.012 367.861 93.5072C588.763 79.7366 644.165 345.604 864.298 324.844C1060.39 306.351 1076.69 18.92 1265.85 66.257C1368.6 91.9711 1468 222.801 1468 222.801" stroke="url(#paint0_linear_137_2)" stroke-width="6"/>
<path opacity="0.2" d="M1468 333.35C1468 333.65 1468 333.949 1467.7 334.248L1395.36 406.701C1395.06 407 1394.76 407 1394.46 407C1394.16 407 1393.86 407 1393.57 406.701L1321.22 334.248C1320.93 333.949 1320.93 333.051 1321.22 332.752L1393.57 260.299C1393.86 260 1394.16 260 1394.46 260C1394.76 260 1395.06 260 1395.36 260.299L1455.44 320.477C1455.74 320.776 1455.74 321.674 1455.44 321.974L1395.36 382.151C1395.06 382.45 1394.16 382.45 1393.86 382.151L1346.04 334.248C1345.74 333.949 1345.74 333.051 1346.04 332.752L1393.86 284.849C1394.16 284.55 1395.06 284.55 1395.36 284.849L1431.23 320.776C1431.53 321.075 1431.53 321.974 1431.23 322.273L1419.27 334.248L1395.66 357.9C1395.36 358.2 1394.46 358.2 1394.16 357.9L1370.55 334.248C1370.25 333.949 1370.25 333.051 1370.55 332.752L1394.16 309.1C1394.46 308.8 1395.36 308.8 1395.66 309.1L1418.68 332.153L1429.14 321.674L1395.06 287.544L1349.03 333.65L1395.06 379.756L1453.65 321.075L1395.06 262.395L1324.21 333.35L1395.06 404.305L1466.51 332.752C1466.8 332.452 1467.7 332.452 1468 332.752C1467.7 332.752 1468 333.051 1468 333.35ZM1394.46 355.505L1416.58 333.35L1394.46 311.196L1372.34 333.35L1394.46 355.505Z" fill="black"/>
<rect opacity="0.7" width="1440" height="574" fill="url(#paint1_linear_137_2)"/>
<defs>
<linearGradient id="paint0_linear_137_2" x1="150.5" y1="193" x2="1291.5" y2="210.5" gradientUnits="userSpaceOnUse">
<stop stop-color="#183DB8" stop-opacity="0.27"/>
<stop offset="0.970637" stop-color="#183DB8" stop-opacity="0"/>
</linearGradient>
<linearGradient id="paint1_linear_137_2" x1="720" y1="0" x2="720" y2="574" gradientUnits="userSpaceOnUse">
<stop stop-color="#183DB8" stop-opacity="0"/>
<stop offset="0.526042" stop-color="#183DB8" stop-opacity="0.25"/>
<stop offset="1" stop-color="#183DB8" stop-opacity="0"/>
</linearGradient>
</defs>
</svg>
